<?xml version="1.0" standalone="no"?>
<!DOCTYPE svg PUBLIC "-//W3C//DTD SVG 20010904//EN"
 "http://www.w3.org/TR/2001/REC-SVG-20010904/DTD/svg10.dtd">
<svg version="1.0" xmlns="http://www.w3.org/2000/svg"
 width="752.000000pt" height="752.000000pt" viewBox="0 0 752.000000 752.000000"
 preserveAspectRatio="xMidYMid meet">
<metadata>
Created by potrace 1.14, written by Peter Selinger 2001-2017
</metadata>
<g transform="translate(0.000000,752.000000) scale(0.100000,-0.100000)"
fill="#000000" stroke="none">
<path d="M2169 6295 l-1513 -983 -327 -1143 c-180 -629 -323 -1148 -319 -1154
20 -27 1916 -2323 1934 -2343 20 -21 58 -27 461 -82 242 -33 908 -123 1480
-200 572 -78 1054 -142 1072 -143 30 -2 75 47 970 1060 l938 1062 108 338 c59
186 206 646 326 1022 l219 685 -368 735 c-353 707 -369 737 -405 754 -20 9
-332 150 -693 311 -361 162 -1043 467 -1514 678 l-857 385 -1512 -982z m2846
-1075 l0 -475 -102 -3 -103 -3 -2 381 -3 381 -103 -66 c-56 -36 -105 -65 -107
-65 -3 0 -5 40 -5 89 l0 89 123 76 122 76 90 -2 90 -3 0 -475z m863 163 l2
-313 60 0 60 0 0 -80 0 -80 -60 0 -60 0 0 -85 0 -86 -97 3 -98 3 -3 83 -3 82
-224 0 -225 0 0 83 0 82 189 297 c103 164 194 304 201 313 11 13 34 15 134 13
l121 -3 3 -312z m-2255 -347 c424 -98 680 -358 721 -733 l7 -63 -279 0 -280 0
-11 46 c-49 194 -199 288 -461 288 -169 0 -289 -41 -364 -124 -50 -56 -67 -98
-67 -173 -1 -85 22 -137 87 -196 75 -69 165 -103 469 -178 286 -70 341 -87
462 -143 244 -113 405 -294 458 -513 21 -88 22 -258 1 -357 -39 -185 -155
-350 -323 -460 -185 -122 -422 -180 -733 -180 -338 0 -600 78 -800 240 -163
130 -270 345 -287 578 l-6 82 280 0 281 0 7 -47 c14 -92 45 -154 109 -219 105
-104 228 -146 426 -145 123 0 197 15 286 55 188 86 251 299 129 434 -80 89
-174 127 -551 221 -270 68 -385 105 -494 162 -277 144 -404 351 -399 648 3
167 53 309 155 443 127 164 387 306 629 343 119 19 452 13 548 -9z m1587
-1796 l0 -950 -260 0 -260 0 0 950 0 950 260 0 260 0 0 -950z"/>
<path d="M5649 5420 c-20 -30 -78 -120 -128 -200 l-92 -145 122 -3 c67 -1 126
1 131 6 5 5 7 96 6 203 l-3 194 -36 -55z"/>
</g>
</svg>
